# xmcd
#
# Track frame offsets: 
#        150
#        24706
#        49338
#        66205
#        89774
#        114163
#        134159
#        154080
#
# Disc length: 2425 seconds
#
# Revision: 0
# Processed by: cddbd v1.5.2PL0 Copyright (c) Steve Scherf et al.
# Submitted via: ExactAudioCopy v0.99pb4
#
DISCID=72097708
DTITLE=ADC Band - Roll With The Punches
DYEAR=1982
DGENRE=Soul
TTITLE0=Roll With The Punches
TTITLE1=U-Funk-ula
TTITLE2=Funk On Fire
TTITLE3=So Good
TTITLE4=Girls
TTITLE5=Give It Up
TTITLE6=You're My Angel
TTITLE7=A Little Taste Of Love
EXTD=
EXTT0=
EXTT1=
EXTT2=
EXTT3=
EXTT4=
EXTT5=
EXTT6=
EXTT7=
PLAYORDER=
